# xmcd CD database file
#
# Track frame offsets:
#	150
#	14307
#	28940
#	48970
#	58380
#	72752
#	83715
#	91747
#	106680
#	124980
#	135290
#	149235
#
# Disc length: 2190 seconds
#
# Revision: 0
# Processed by: cddbd v1.4PL0 Copyright (c) Steve Scherf et al.
# Submitted via: CD2WAV32(EN) R3.19
#
DISCID=a3088c0c
DTITLE=Tracy Nelson - Deep Are The Roots
DYEAR=1900
DGENRE=
TTITLE0=Motherless Child Blues
TTITLE1=Long Lold Road
TTITLE2=Startin' for Chicago
TTITLE3=Baby Please Don't Go
TTITLE4=Oh My Baby
TTITLE5=Ramblin' Man
TTITLE6=Candy Man
TTITLE7=Grieving Hearted Blues
TTITLE8=Black Cat Hoot Owl Blues
TTITLE9=House of the Rising Sun
TTITLE10=Jesus Met The Woman At The Well
TTITLE11=Trust No Man
EXTD=
EXTT0=
EXTT1=
EXTT2=
EXTT3=
EXTT4=
EXTT5=
EXTT6=
EXTT7=
EXTT8=
EXTT9=
EXTT10=
EXTT11=
PLAYORDER=
